<svg viewBox="0 0 1181 433" fill="none" xmlns="http://www.w3.org/2000/svg">
<g filter="url(#filter0_d_1_8)">
<rect x="4" y="45" width="9" height="288" fill="#C8BE91"/>
</g>
<g filter="url(#filter1_d_1_8)">
<path d="M164.189 42.0957V84.1074H160.938C157.012 72.623 151.123 63.8926 143.271 57.916C135.42 51.9395 126.836 48.9512 117.52 48.9512C108.613 48.9512 101.201 51.4707 95.2832 56.5098C89.3652 61.4902 85.1758 68.4629 82.7148 77.4277C80.2539 86.3926 79.0234 95.5918 79.0234 105.025C79.0234 116.451 80.3711 126.471 83.0664 135.084C85.7617 143.697 90.0977 150.025 96.0742 154.068C102.109 158.111 109.258 160.133 117.52 160.133C120.391 160.133 123.32 159.84 126.309 159.254C129.355 158.609 132.461 157.701 135.625 156.529V131.744C135.625 127.057 135.303 124.039 134.658 122.691C134.014 121.285 132.666 120.025 130.615 118.912C128.623 117.799 126.191 117.242 123.32 117.242H120.244V113.99H178.164V117.242C173.77 117.535 170.693 118.15 168.936 119.088C167.236 119.967 165.918 121.461 164.98 123.57C164.453 124.684 164.189 127.408 164.189 131.744V156.529C156.572 159.928 148.633 162.477 140.371 164.176C132.168 165.934 123.643 166.812 114.795 166.812C103.486 166.812 94.082 165.289 86.582 162.242C79.1406 159.137 72.5488 155.094 66.8066 150.113C61.123 145.074 56.6699 139.42 53.4473 133.15C49.3457 125.064 47.2949 116.012 47.2949 105.992C47.2949 88.0625 53.5938 72.916 66.1914 60.5527C78.7891 48.1895 94.6387 42.0078 113.74 42.0078C119.658 42.0078 124.99 42.4766 129.736 43.4141C132.314 43.8828 136.475 45.2305 142.217 47.457C148.018 49.625 151.445 50.709 152.5 50.709C154.141 50.709 155.664 50.123 157.07 48.9512C158.477 47.7207 159.766 45.4355 160.938 42.0957H164.189ZM229.141 51.6758V100.191H231.514C239.072 100.191 244.551 97.8184 247.949 93.0723C251.348 88.3262 253.516 81.3242 254.453 72.0664H257.793V134.469H254.453C253.75 127.672 252.256 122.105 249.971 117.77C247.744 113.434 245.137 110.533 242.148 109.068C239.16 107.545 234.824 106.783 229.141 106.783V140.357C229.141 146.92 229.404 150.934 229.932 152.398C230.518 153.863 231.572 155.064 233.096 156.002C234.619 156.939 237.08 157.408 240.479 157.408H247.598C258.73 157.408 267.637 154.83 274.316 149.674C281.055 144.518 285.889 136.666 288.818 126.119H292.07L286.709 164H183.701V160.748H187.656C191.113 160.748 193.896 160.133 196.006 158.902C197.529 158.082 198.701 156.676 199.521 154.684C200.166 153.277 200.488 149.586 200.488 143.609V65.2109C200.488 59.8203 200.342 56.5098 200.049 55.2793C199.463 53.2285 198.379 51.6465 196.797 50.5332C194.57 48.8926 191.523 48.0723 187.656 48.0723H183.701V44.8203H283.457V80.0645H280.117C278.418 71.4512 276.016 65.2695 272.91 61.5195C269.863 57.7695 265.527 55.0156 259.902 53.2578C256.621 52.2031 250.469 51.6758 241.445 51.6758H229.141ZM413.799 122.164L409.316 164H303.496V160.748H307.451C310.908 160.748 313.691 160.133 315.801 158.902C317.324 158.082 318.496 156.676 319.316 154.684C319.961 153.277 320.283 149.586 320.283 143.609V65.2109C320.283 59.1172 319.961 55.3086 319.316 53.7852C318.672 52.2617 317.354 50.9434 315.361 49.8301C313.428 48.6582 310.791 48.0723 307.451 48.0723H303.496V44.8203H367.041V48.0723H361.855C358.398 48.0723 355.615 48.6875 353.506 49.918C351.982 50.7383 350.781 52.1445 349.902 54.1367C349.258 55.543 348.936 59.2344 348.936 65.2109V141.148C348.936 147.242 349.287 151.139 349.99 152.838C350.693 154.479 352.07 155.709 354.121 156.529C355.586 157.057 359.131 157.32 364.756 157.32H374.688C381.016 157.32 386.289 156.207 390.508 153.98C394.727 151.754 398.359 148.238 401.406 143.434C404.512 138.629 407.441 131.539 410.195 122.164H413.799ZM486.133 160.748V164H423.818V160.748H427.773C431.23 160.748 434.014 160.133 436.123 158.902C437.646 158.082 438.818 156.676 439.639 154.684C440.283 153.277 440.605 149.586 440.605 143.609V65.2109C440.605 59.1172 440.283 55.3086 439.639 53.7852C438.994 52.2617 437.676 50.9434 435.684 49.8301C433.75 48.6582 431.113 48.0723 427.773 48.0723H423.818V44.8203H486.133V48.0723H482.178C478.721 48.0723 475.938 48.6875 473.828 49.918C472.305 50.7383 471.104 52.1445 470.225 54.1367C469.58 55.543 469.258 59.2344 469.258 65.2109V143.609C469.258 149.703 469.58 153.512 470.225 155.035C470.928 156.559 472.246 157.906 474.18 159.078C476.172 160.191 478.838 160.748 482.178 160.748H486.133ZM559.873 43.1504C578.857 42.4473 594.268 47.9844 606.104 59.7617C617.998 71.5391 623.945 86.2754 623.945 103.971C623.945 119.088 619.521 132.389 610.674 143.873C598.955 159.107 582.402 166.725 561.016 166.725C539.57 166.725 522.988 159.459 511.27 144.928C502.012 133.443 497.383 119.82 497.383 104.059C497.383 86.3633 503.389 71.627 515.4 59.8496C527.471 48.0137 542.295 42.4473 559.873 43.1504ZM560.928 48.7754C550.029 48.7754 541.738 54.3418 536.055 65.4746C531.426 74.6152 529.111 87.7402 529.111 104.85C529.111 125.182 532.686 140.211 539.834 149.938C544.814 156.734 551.787 160.133 560.752 160.133C566.787 160.133 571.826 158.668 575.869 155.738C581.025 151.988 585.039 146.012 587.91 137.809C590.781 129.547 592.217 118.795 592.217 105.553C592.217 89.791 590.752 78.0137 587.822 70.2207C584.893 62.3691 581.143 56.832 576.572 53.6094C572.061 50.3867 566.846 48.7754 560.928 48.7754Z" fill="#CBBE90"/>
</g>
<g filter="url(#filter2_d_1_8)">
<path d="M160.146 212.096V253.404H156.719C154.141 242.623 149.336 234.361 142.305 228.619C135.273 222.877 127.305 220.006 118.398 220.006C110.957 220.006 104.131 222.145 97.9199 226.422C91.709 230.699 87.168 236.295 84.2969 243.209C80.6055 252.057 78.7598 261.9 78.7598 272.74C78.7598 283.404 80.1074 293.131 82.8027 301.92C85.498 310.65 89.7168 317.271 95.459 321.783C101.201 326.236 108.643 328.463 117.783 328.463C125.283 328.463 132.139 326.822 138.35 323.541C144.619 320.26 151.211 314.605 158.125 306.578V316.861C151.445 323.834 144.473 328.902 137.207 332.066C130 335.172 121.562 336.725 111.895 336.725C99.1797 336.725 87.8711 334.176 77.9688 329.078C68.125 323.98 60.5078 316.656 55.1172 307.105C49.7852 297.555 47.1191 287.389 47.1191 276.607C47.1191 265.24 50.0781 254.459 55.9961 244.264C61.9727 234.068 70 226.158 80.0781 220.533C90.2148 214.908 100.967 212.096 112.334 212.096C120.713 212.096 129.561 213.912 138.877 217.545C144.268 219.654 147.695 220.709 149.16 220.709C151.035 220.709 152.646 220.035 153.994 218.688C155.4 217.281 156.309 215.084 156.719 212.096H160.146ZM239.6 213.15C258.584 212.447 273.994 217.984 285.83 229.762C297.725 241.539 303.672 256.275 303.672 273.971C303.672 289.088 299.248 302.389 290.4 313.873C278.682 329.107 262.129 336.725 240.742 336.725C219.297 336.725 202.715 329.459 190.996 314.928C181.738 303.443 177.109 289.82 177.109 274.059C177.109 256.363 183.115 241.627 195.127 229.85C207.197 218.014 222.021 212.447 239.6 213.15ZM240.654 218.775C229.756 218.775 221.465 224.342 215.781 235.475C211.152 244.615 208.838 257.74 208.838 274.85C208.838 295.182 212.412 310.211 219.561 319.938C224.541 326.734 231.514 330.133 240.479 330.133C246.514 330.133 251.553 328.668 255.596 325.738C260.752 321.988 264.766 316.012 267.637 307.809C270.508 299.547 271.943 288.795 271.943 275.553C271.943 259.791 270.479 248.014 267.549 240.221C264.619 232.369 260.869 226.832 256.299 223.609C251.787 220.387 246.572 218.775 240.654 218.775ZM395.957 293.395L428.301 214.82H476.816V218.072H472.949C469.434 218.072 466.621 218.688 464.512 219.918C463.047 220.738 461.875 222.115 460.996 224.049C460.352 225.455 460.029 229.117 460.029 235.035V313.609C460.029 319.703 460.352 323.512 460.996 325.035C461.641 326.559 462.959 327.906 464.951 329.078C466.943 330.191 469.609 330.748 472.949 330.748H476.816V334H414.59V330.748H418.457C421.973 330.748 424.785 330.133 426.895 328.902C428.359 328.082 429.531 326.676 430.41 324.684C431.055 323.277 431.377 319.586 431.377 313.609V225.279L385.674 334H383.564L337.158 226.07V310.006C337.158 315.865 337.305 319.469 337.598 320.816C338.359 323.746 340 326.148 342.52 328.023C345.098 329.84 349.111 330.748 354.561 330.748V334H313.779V330.748H315.01C317.646 330.807 320.107 330.396 322.393 329.518C324.678 328.58 326.406 327.35 327.578 325.826C328.75 324.303 329.658 322.164 330.303 319.41C330.42 318.766 330.479 315.777 330.479 310.445V235.035C330.479 229 330.156 225.25 329.512 223.785C328.867 222.262 327.549 220.943 325.557 219.83C323.564 218.658 320.898 218.072 317.559 218.072H313.779V214.82H362.471L395.957 293.395ZM529.199 221.676V270.191H531.572C539.131 270.191 544.609 267.818 548.008 263.072C551.406 258.326 553.574 251.324 554.512 242.066H557.852V304.469H554.512C553.809 297.672 552.314 292.105 550.029 287.77C547.803 283.434 545.195 280.533 542.207 279.068C539.219 277.545 534.883 276.783 529.199 276.783V310.357C529.199 316.92 529.463 320.934 529.99 322.398C530.576 323.863 531.631 325.064 533.154 326.002C534.678 326.939 537.139 327.408 540.537 327.408H547.656C558.789 327.408 567.695 324.83 574.375 319.674C581.113 314.518 585.947 306.666 588.877 296.119H592.129L586.768 334H483.76V330.748H487.715C491.172 330.748 493.955 330.133 496.064 328.902C497.588 328.082 498.76 326.676 499.58 324.684C500.225 323.277 500.547 319.586 500.547 313.609V235.211C500.547 229.82 500.4 226.51 500.107 225.279C499.521 223.229 498.438 221.646 496.855 220.533C494.629 218.893 491.582 218.072 487.715 218.072H483.76V214.82H583.516V250.064H580.176C578.477 241.451 576.074 235.27 572.969 231.52C569.922 227.77 565.586 225.016 559.961 223.258C556.68 222.203 550.527 221.676 541.504 221.676H529.199ZM648.027 279.684V313.082C648.027 319.527 648.408 323.6 649.17 325.299C649.99 326.939 651.396 328.258 653.389 329.254C655.381 330.25 659.102 330.748 664.551 330.748V334H603.555V330.748C609.062 330.748 612.783 330.25 614.717 329.254C616.709 328.199 618.086 326.852 618.848 325.211C619.668 323.57 620.078 319.527 620.078 313.082V235.738C620.078 229.293 619.668 225.25 618.848 223.609C618.086 221.91 616.709 220.562 614.717 219.566C612.725 218.57 609.004 218.072 603.555 218.072V214.82H658.926C673.34 214.82 683.887 215.816 690.566 217.809C697.246 219.801 702.695 223.492 706.914 228.883C711.133 234.215 713.242 240.484 713.242 247.691C713.242 256.48 710.078 263.746 703.75 269.488C699.707 273.121 694.053 275.846 686.787 277.662L715.439 318.004C719.189 323.219 721.855 326.471 723.438 327.76C725.84 329.576 728.623 330.572 731.787 330.748V334H694.258L655.85 279.684H648.027ZM648.027 221.236V273.443H653.037C661.182 273.443 667.275 272.711 671.318 271.246C675.361 269.723 678.525 267.027 680.811 263.16C683.154 259.234 684.326 254.137 684.326 247.867C684.326 238.785 682.188 232.076 677.91 227.74C673.691 223.404 666.865 221.236 657.432 221.236H648.027ZM850.439 212.096V253.404H847.012C844.434 242.623 839.629 234.361 832.598 228.619C825.566 222.877 817.598 220.006 808.691 220.006C801.25 220.006 794.424 222.145 788.213 226.422C782.002 230.699 777.461 236.295 774.59 243.209C770.898 252.057 769.053 261.9 769.053 272.74C769.053 283.404 770.4 293.131 773.096 301.92C775.791 310.65 780.01 317.271 785.752 321.783C791.494 326.236 798.936 328.463 808.076 328.463C815.576 328.463 822.432 326.822 828.643 323.541C834.912 320.26 841.504 314.605 848.418 306.578V316.861C841.738 323.834 834.766 328.902 827.5 332.066C820.293 335.172 811.855 336.725 802.188 336.725C789.473 336.725 778.164 334.176 768.262 329.078C758.418 323.98 750.801 316.656 745.41 307.105C740.078 297.555 737.412 287.389 737.412 276.607C737.412 265.24 740.371 254.459 746.289 244.264C752.266 234.068 760.293 226.158 770.371 220.533C780.508 214.908 791.26 212.096 802.627 212.096C811.006 212.096 819.854 213.912 829.17 217.545C834.561 219.654 837.988 220.709 839.453 220.709C841.328 220.709 842.939 220.035 844.287 218.688C845.693 217.281 846.602 215.084 847.012 212.096H850.439ZM926.289 330.748V334H863.975V330.748H867.93C871.387 330.748 874.17 330.133 876.279 328.902C877.803 328.082 878.975 326.676 879.795 324.684C880.439 323.277 880.762 319.586 880.762 313.609V235.211C880.762 229.117 880.439 225.309 879.795 223.785C879.15 222.262 877.832 220.943 875.84 219.83C873.906 218.658 871.27 218.072 867.93 218.072H863.975V214.82H926.289V218.072H922.334C918.877 218.072 916.094 218.688 913.984 219.918C912.461 220.738 911.26 222.145 910.381 224.137C909.736 225.543 909.414 229.234 909.414 235.211V313.609C909.414 319.703 909.736 323.512 910.381 325.035C911.084 326.559 912.402 327.906 914.336 329.078C916.328 330.191 918.994 330.748 922.334 330.748H926.289ZM1005.39 300.074H963.291L958.281 311.676C956.641 315.543 955.82 318.736 955.82 321.256C955.82 324.596 957.168 327.057 959.863 328.639C961.445 329.576 965.342 330.279 971.553 330.748V334H931.914V330.748C936.191 330.104 939.707 328.346 942.461 325.475C945.215 322.545 948.613 316.539 952.656 307.457L995.283 212.359H996.953L1039.93 310.094C1044.03 319.352 1047.4 325.182 1050.04 327.584C1052.03 329.4 1054.84 330.455 1058.48 330.748V334H1000.82V330.748H1003.19C1007.82 330.748 1011.07 330.104 1012.95 328.814C1014.24 327.877 1014.88 326.529 1014.88 324.771C1014.88 323.717 1014.71 322.633 1014.36 321.52C1014.24 320.992 1013.36 318.795 1011.72 314.928L1005.39 300.074ZM1002.4 293.57L984.648 252.525L966.367 293.57H1002.4ZM1174.23 292.164L1169.75 334H1063.93V330.748H1067.88C1071.34 330.748 1074.12 330.133 1076.23 328.902C1077.75 328.082 1078.93 326.676 1079.75 324.684C1080.39 323.277 1080.71 319.586 1080.71 313.609V235.211C1080.71 229.117 1080.39 225.309 1079.75 223.785C1079.1 222.262 1077.78 220.943 1075.79 219.83C1073.86 218.658 1071.22 218.072 1067.88 218.072H1063.93V214.82H1127.47V218.072H1122.29C1118.83 218.072 1116.04 218.688 1113.94 219.918C1112.41 220.738 1111.21 222.145 1110.33 224.137C1109.69 225.543 1109.37 229.234 1109.37 235.211V311.148C1109.37 317.242 1109.72 321.139 1110.42 322.838C1111.12 324.479 1112.5 325.709 1114.55 326.529C1116.02 327.057 1119.56 327.32 1125.19 327.32H1135.12C1141.45 327.32 1146.72 326.207 1150.94 323.98C1155.16 321.754 1158.79 318.238 1161.84 313.434C1164.94 308.629 1167.87 301.539 1170.62 292.164H1174.23Z" fill="#C8BE91"/>
</g>
<path d="M33.7227 405.262L41.5703 407.75C40.3672 412.125 38.362 415.379 35.5547 417.512C32.7656 419.626 29.2201 420.684 24.918 420.684C19.5951 420.684 15.2201 418.87 11.793 415.242C8.36589 411.596 6.65234 406.62 6.65234 400.312C6.65234 393.641 8.375 388.464 11.8203 384.781C15.2656 381.081 19.7956 379.23 25.4102 379.23C30.3138 379.23 34.2969 380.68 37.3594 383.578C39.1823 385.292 40.5495 387.753 41.4609 390.961L33.4492 392.875C32.9753 390.797 31.9818 389.156 30.4688 387.953C28.974 386.75 27.151 386.148 25 386.148C22.0286 386.148 19.6133 387.215 17.7539 389.348C15.9128 391.48 14.9922 394.935 14.9922 399.711C14.9922 404.779 15.9036 408.388 17.7266 410.539C19.5495 412.69 21.9193 413.766 24.8359 413.766C26.987 413.766 28.8372 413.082 30.3867 411.715C31.9362 410.348 33.0482 408.197 33.7227 405.262ZM46.7109 405.07C46.7109 402.518 47.3398 400.048 48.5977 397.66C49.8555 395.272 51.6328 393.449 53.9297 392.191C56.2448 390.934 58.8242 390.305 61.668 390.305C66.0612 390.305 69.6615 391.736 72.4688 394.598C75.276 397.441 76.6797 401.042 76.6797 405.398C76.6797 409.792 75.2578 413.438 72.4141 416.336C69.5885 419.216 66.0247 420.656 61.7227 420.656C59.0612 420.656 56.5182 420.055 54.0938 418.852C51.6875 417.648 49.8555 415.889 48.5977 413.574C47.3398 411.241 46.7109 408.406 46.7109 405.07ZM54.5859 405.48C54.5859 408.361 55.2695 410.566 56.6367 412.098C58.0039 413.629 59.6901 414.395 61.6953 414.395C63.7005 414.395 65.3776 413.629 66.7266 412.098C68.0938 410.566 68.7773 408.342 68.7773 405.426C68.7773 402.582 68.0938 400.395 66.7266 398.863C65.3776 397.332 63.7005 396.566 61.6953 396.566C59.6901 396.566 58.0039 397.332 56.6367 398.863C55.2695 400.395 54.5859 402.6 54.5859 405.48ZM82.1484 390.961H89.2305V394.926C91.7643 391.845 94.7812 390.305 98.2812 390.305C100.141 390.305 101.754 390.688 103.121 391.453C104.488 392.219 105.609 393.376 106.484 394.926C107.76 393.376 109.137 392.219 110.613 391.453C112.09 390.688 113.667 390.305 115.344 390.305C117.477 390.305 119.281 390.742 120.758 391.617C122.234 392.474 123.337 393.741 124.066 395.418C124.595 396.658 124.859 398.663 124.859 401.434V420H117.176V403.402C117.176 400.522 116.911 398.663 116.383 397.824C115.672 396.73 114.578 396.184 113.102 396.184C112.026 396.184 111.014 396.512 110.066 397.168C109.118 397.824 108.435 398.79 108.016 400.066C107.596 401.324 107.387 403.32 107.387 406.055V420H99.7031V404.086C99.7031 401.26 99.5664 399.438 99.293 398.617C99.0195 397.797 98.5911 397.186 98.0078 396.785C97.4427 396.384 96.668 396.184 95.6836 396.184C94.4987 396.184 93.4323 396.503 92.4844 397.141C91.5365 397.779 90.8529 398.699 90.4336 399.902C90.0326 401.105 89.832 403.102 89.832 405.891V420H82.1484V390.961ZM149.359 410.758L157.016 412.043C156.031 414.85 154.473 416.992 152.34 418.469C150.225 419.927 147.573 420.656 144.383 420.656C139.333 420.656 135.596 419.007 133.172 415.707C131.258 413.064 130.301 409.728 130.301 405.699C130.301 400.887 131.559 397.122 134.074 394.406C136.59 391.672 139.771 390.305 143.617 390.305C147.938 390.305 151.346 391.736 153.844 394.598C156.341 397.441 157.535 401.807 157.426 407.695H138.176C138.23 409.974 138.85 411.751 140.035 413.027C141.22 414.285 142.697 414.914 144.465 414.914C145.668 414.914 146.68 414.586 147.5 413.93C148.32 413.273 148.94 412.216 149.359 410.758ZM149.797 402.992C149.742 400.768 149.168 399.082 148.074 397.934C146.98 396.767 145.65 396.184 144.082 396.184C142.405 396.184 141.02 396.794 139.926 398.016C138.832 399.237 138.294 400.896 138.312 402.992H149.797ZM139.98 387.406L143.754 379.23H152.367L144.848 387.406H139.98ZM171.07 420H163.387V390.961H170.523V395.09C171.745 393.139 172.839 391.854 173.805 391.234C174.789 390.615 175.901 390.305 177.141 390.305C178.891 390.305 180.577 390.788 182.199 391.754L179.82 398.453C178.526 397.615 177.323 397.195 176.211 397.195C175.135 397.195 174.224 397.496 173.477 398.098C172.729 398.681 172.137 399.747 171.699 401.297C171.28 402.846 171.07 406.091 171.07 411.031V420ZM210.855 399.547L203.281 400.914C203.026 399.401 202.443 398.262 201.531 397.496C200.638 396.73 199.471 396.348 198.031 396.348C196.117 396.348 194.586 397.013 193.438 398.344C192.307 399.656 191.742 401.862 191.742 404.961C191.742 408.406 192.316 410.84 193.465 412.262C194.632 413.684 196.19 414.395 198.141 414.395C199.599 414.395 200.793 413.984 201.723 413.164C202.652 412.326 203.309 410.895 203.691 408.871L211.238 410.156C210.454 413.62 208.951 416.236 206.727 418.004C204.503 419.772 201.522 420.656 197.785 420.656C193.538 420.656 190.147 419.316 187.613 416.637C185.098 413.957 183.84 410.247 183.84 405.508C183.84 400.714 185.107 396.986 187.641 394.324C190.174 391.645 193.602 390.305 197.922 390.305C201.458 390.305 204.266 391.07 206.344 392.602C208.44 394.115 209.944 396.43 210.855 399.547ZM216.707 387.023V379.914H224.391V387.023H216.707ZM216.707 420V390.961H224.391V420H216.707ZM230.516 405.07C230.516 402.518 231.145 400.048 232.402 397.66C233.66 395.272 235.438 393.449 237.734 392.191C240.049 390.934 242.629 390.305 245.473 390.305C249.866 390.305 253.466 391.736 256.273 394.598C259.081 397.441 260.484 401.042 260.484 405.398C260.484 409.792 259.062 413.438 256.219 416.336C253.393 419.216 249.829 420.656 245.527 420.656C242.866 420.656 240.323 420.055 237.898 418.852C235.492 417.648 233.66 415.889 232.402 413.574C231.145 411.241 230.516 408.406 230.516 405.07ZM238.391 405.48C238.391 408.361 239.074 410.566 240.441 412.098C241.809 413.629 243.495 414.395 245.5 414.395C247.505 414.395 249.182 413.629 250.531 412.098C251.898 410.566 252.582 408.342 252.582 405.426C252.582 402.582 251.898 400.395 250.531 398.863C249.182 397.332 247.505 396.566 245.5 396.566C243.495 396.566 241.809 397.332 240.441 398.863C239.074 400.395 238.391 402.6 238.391 405.48ZM280.117 406.957L287.992 406.191C288.466 408.835 289.423 410.776 290.863 412.016C292.322 413.255 294.281 413.875 296.742 413.875C299.349 413.875 301.309 413.328 302.621 412.234C303.952 411.122 304.617 409.828 304.617 408.352C304.617 407.404 304.335 406.602 303.77 405.945C303.223 405.271 302.257 404.688 300.871 404.195C299.923 403.867 297.763 403.284 294.391 402.445C290.052 401.37 287.008 400.048 285.258 398.48C282.797 396.275 281.566 393.586 281.566 390.414C281.566 388.372 282.141 386.467 283.289 384.699C284.456 382.913 286.124 381.555 288.293 380.625C290.48 379.695 293.115 379.23 296.195 379.23C301.227 379.23 305.009 380.333 307.543 382.539C310.095 384.745 311.435 387.689 311.562 391.371L303.469 391.727C303.122 389.667 302.375 388.19 301.227 387.297C300.096 386.385 298.392 385.93 296.113 385.93C293.762 385.93 291.921 386.413 290.59 387.379C289.733 387.999 289.305 388.828 289.305 389.867C289.305 390.815 289.706 391.626 290.508 392.301C291.529 393.158 294.008 394.051 297.945 394.98C301.883 395.91 304.79 396.876 306.668 397.879C308.564 398.863 310.04 400.221 311.098 401.953C312.173 403.667 312.711 405.79 312.711 408.324C312.711 410.621 312.073 412.772 310.797 414.777C309.521 416.783 307.716 418.277 305.383 419.262C303.049 420.228 300.142 420.711 296.66 420.711C291.592 420.711 287.701 419.544 284.984 417.211C282.268 414.859 280.646 411.441 280.117 406.957ZM336.281 410.758L343.938 412.043C342.953 414.85 341.395 416.992 339.262 418.469C337.147 419.927 334.495 420.656 331.305 420.656C326.255 420.656 322.518 419.007 320.094 415.707C318.18 413.064 317.223 409.728 317.223 405.699C317.223 400.887 318.48 397.122 320.996 394.406C323.512 391.672 326.693 390.305 330.539 390.305C334.859 390.305 338.268 391.736 340.766 394.598C343.263 397.441 344.457 401.807 344.348 407.695H325.098C325.152 409.974 325.772 411.751 326.957 413.027C328.142 414.285 329.618 414.914 331.387 414.914C332.59 414.914 333.602 414.586 334.422 413.93C335.242 413.273 335.862 412.216 336.281 410.758ZM336.719 402.992C336.664 400.768 336.09 399.082 334.996 397.934C333.902 396.767 332.572 396.184 331.004 396.184C329.327 396.184 327.941 396.794 326.848 398.016C325.754 399.237 325.216 400.896 325.234 402.992H336.719ZM350.062 390.961H357.145V394.926C359.678 391.845 362.695 390.305 366.195 390.305C368.055 390.305 369.668 390.688 371.035 391.453C372.402 392.219 373.523 393.376 374.398 394.926C375.674 393.376 377.051 392.219 378.527 391.453C380.004 390.688 381.581 390.305 383.258 390.305C385.391 390.305 387.195 390.742 388.672 391.617C390.148 392.474 391.251 393.741 391.98 395.418C392.509 396.658 392.773 398.663 392.773 401.434V420H385.09V403.402C385.09 400.522 384.826 398.663 384.297 397.824C383.586 396.73 382.492 396.184 381.016 396.184C379.94 396.184 378.928 396.512 377.98 397.168C377.033 397.824 376.349 398.79 375.93 400.066C375.51 401.324 375.301 403.32 375.301 406.055V420H367.617V404.086C367.617 401.26 367.48 399.438 367.207 398.617C366.934 397.797 366.505 397.186 365.922 396.785C365.357 396.384 364.582 396.184 363.598 396.184C362.413 396.184 361.346 396.503 360.398 397.141C359.451 397.779 358.767 398.699 358.348 399.902C357.947 401.105 357.746 403.102 357.746 405.891V420H350.062V390.961ZM416.152 420V379.914H443.633V386.695H424.246V396.184H440.98V402.965H424.246V420H416.152ZM457.633 420H449.949V390.961H457.086V395.09C458.307 393.139 459.401 391.854 460.367 391.234C461.352 390.615 462.464 390.305 463.703 390.305C465.453 390.305 467.139 390.788 468.762 391.754L466.383 398.453C465.089 397.615 463.885 397.195 462.773 397.195C461.698 397.195 460.786 397.496 460.039 398.098C459.292 398.681 458.699 399.747 458.262 401.297C457.842 402.846 457.633 406.091 457.633 411.031V420ZM470.32 405.07C470.32 402.518 470.949 400.048 472.207 397.66C473.465 395.272 475.242 393.449 477.539 392.191C479.854 390.934 482.434 390.305 485.277 390.305C489.671 390.305 493.271 391.736 496.078 394.598C498.885 397.441 500.289 401.042 500.289 405.398C500.289 409.792 498.867 413.438 496.023 416.336C493.198 419.216 489.634 420.656 485.332 420.656C482.671 420.656 480.128 420.055 477.703 418.852C475.297 417.648 473.465 415.889 472.207 413.574C470.949 411.241 470.32 408.406 470.32 405.07ZM478.195 405.48C478.195 408.361 478.879 410.566 480.246 412.098C481.613 413.629 483.299 414.395 485.305 414.395C487.31 414.395 488.987 413.629 490.336 412.098C491.703 410.566 492.387 408.342 492.387 405.426C492.387 402.582 491.703 400.395 490.336 398.863C488.987 397.332 487.31 396.566 485.305 396.566C483.299 396.566 481.613 397.332 480.246 398.863C478.879 400.395 478.195 402.6 478.195 405.48ZM532.746 420H525.062V405.18C525.062 402.044 524.898 400.021 524.57 399.109C524.242 398.18 523.704 397.46 522.957 396.949C522.228 396.439 521.344 396.184 520.305 396.184C518.974 396.184 517.78 396.548 516.723 397.277C515.665 398.007 514.936 398.973 514.535 400.176C514.152 401.379 513.961 403.603 513.961 406.848V420H506.277V390.961H513.414V395.227C515.948 391.945 519.138 390.305 522.984 390.305C524.68 390.305 526.229 390.615 527.633 391.234C529.036 391.836 530.094 392.611 530.805 393.559C531.534 394.507 532.035 395.582 532.309 396.785C532.6 397.988 532.746 399.711 532.746 401.953V420ZM553.883 390.961V397.086H548.633V408.789C548.633 411.159 548.678 412.544 548.77 412.945C548.879 413.328 549.107 413.647 549.453 413.902C549.818 414.158 550.255 414.285 550.766 414.285C551.477 414.285 552.507 414.039 553.855 413.547L554.512 419.508C552.725 420.273 550.702 420.656 548.441 420.656C547.056 420.656 545.807 420.428 544.695 419.973C543.583 419.499 542.763 418.897 542.234 418.168C541.724 417.421 541.368 416.418 541.168 415.16C541.004 414.267 540.922 412.462 540.922 409.746V397.086H537.395V390.961H540.922V385.191L548.633 380.707V390.961H553.883ZM576.031 410.758L583.688 412.043C582.703 414.85 581.145 416.992 579.012 418.469C576.897 419.927 574.245 420.656 571.055 420.656C566.005 420.656 562.268 419.007 559.844 415.707C557.93 413.064 556.973 409.728 556.973 405.699C556.973 400.887 558.23 397.122 560.746 394.406C563.262 391.672 566.443 390.305 570.289 390.305C574.609 390.305 578.018 391.736 580.516 394.598C583.013 397.441 584.207 401.807 584.098 407.695H564.848C564.902 409.974 565.522 411.751 566.707 413.027C567.892 414.285 569.368 414.914 571.137 414.914C572.34 414.914 573.352 414.586 574.172 413.93C574.992 413.273 575.612 412.216 576.031 410.758ZM576.469 402.992C576.414 400.768 575.84 399.082 574.746 397.934C573.652 396.767 572.322 396.184 570.754 396.184C569.077 396.184 567.691 396.794 566.598 398.016C565.504 399.237 564.966 400.896 564.984 402.992H576.469ZM590.387 387.023V379.914H598.07V387.023H590.387ZM590.387 420V390.961H598.07V420H590.387ZM613.328 420H605.645V390.961H612.781V395.09C614.003 393.139 615.096 391.854 616.062 391.234C617.047 390.615 618.159 390.305 619.398 390.305C621.148 390.305 622.835 390.788 624.457 391.754L622.078 398.453C620.784 397.615 619.581 397.195 618.469 397.195C617.393 397.195 616.482 397.496 615.734 398.098C614.987 398.681 614.395 399.747 613.957 401.297C613.538 402.846 613.328 406.091 613.328 411.031V420ZM633.535 399.82L626.562 398.562C627.346 395.755 628.695 393.677 630.609 392.328C632.523 390.979 635.367 390.305 639.141 390.305C642.568 390.305 645.12 390.715 646.797 391.535C648.474 392.337 649.65 393.367 650.324 394.625C651.017 395.865 651.363 398.152 651.363 401.488L651.281 410.457C651.281 413.009 651.4 414.896 651.637 416.117C651.892 417.32 652.357 418.615 653.031 420H645.43C645.229 419.49 644.983 418.733 644.691 417.73C644.564 417.275 644.473 416.974 644.418 416.828C643.105 418.104 641.702 419.061 640.207 419.699C638.712 420.337 637.117 420.656 635.422 420.656C632.432 420.656 630.072 419.845 628.34 418.223C626.626 416.6 625.77 414.549 625.77 412.07C625.77 410.43 626.161 408.971 626.945 407.695C627.729 406.401 628.823 405.417 630.227 404.742C631.648 404.049 633.69 403.448 636.352 402.938C639.943 402.263 642.431 401.634 643.816 401.051V400.285C643.816 398.809 643.452 397.76 642.723 397.141C641.993 396.503 640.617 396.184 638.594 396.184C637.227 396.184 636.16 396.457 635.395 397.004C634.629 397.533 634.009 398.471 633.535 399.82ZM643.816 406.055C642.832 406.383 641.273 406.775 639.141 407.23C637.008 407.686 635.613 408.133 634.957 408.57C633.954 409.281 633.453 410.184 633.453 411.277C633.453 412.353 633.854 413.283 634.656 414.066C635.458 414.85 636.479 415.242 637.719 415.242C639.104 415.242 640.426 414.786 641.684 413.875C642.613 413.182 643.224 412.335 643.516 411.332C643.716 410.676 643.816 409.427 643.816 407.586V406.055ZM656.258 411.715L663.969 410.539C664.297 412.034 664.962 413.173 665.965 413.957C666.967 414.723 668.371 415.105 670.176 415.105C672.163 415.105 673.658 414.741 674.66 414.012C675.335 413.501 675.672 412.818 675.672 411.961C675.672 411.378 675.49 410.895 675.125 410.512C674.742 410.147 673.885 409.81 672.555 409.5C666.357 408.133 662.428 406.884 660.77 405.754C658.473 404.186 657.324 402.008 657.324 399.219C657.324 396.703 658.318 394.589 660.305 392.875C662.292 391.161 665.372 390.305 669.547 390.305C673.521 390.305 676.474 390.952 678.406 392.246C680.339 393.54 681.669 395.454 682.398 397.988L675.152 399.328C674.842 398.198 674.25 397.332 673.375 396.73C672.518 396.129 671.288 395.828 669.684 395.828C667.66 395.828 666.211 396.111 665.336 396.676C664.753 397.077 664.461 397.596 664.461 398.234C664.461 398.781 664.716 399.246 665.227 399.629C665.919 400.139 668.307 400.859 672.391 401.789C676.492 402.719 679.354 403.858 680.977 405.207C682.581 406.574 683.383 408.479 683.383 410.922C683.383 413.583 682.271 415.871 680.047 417.785C677.823 419.699 674.533 420.656 670.176 420.656C666.22 420.656 663.085 419.854 660.77 418.25C658.473 416.646 656.969 414.467 656.258 411.715Z" fill="white" fill-opacity="0.78"/>
<defs>
<filter id="filter0_d_1_8" x="0" y="42" width="17" height="296" filterUnits="userSpaceOnUse" color-interpolation-filters="sRGB">
<feFlood flood-opacity="0" result="BackgroundImageFix"/>
<feColorMatrix in="SourceAlpha" type="matrix" values="0 0 0 0 0 0 0 0 0 0 0 0 0 0 0 0 0 0 127 0" result="hardAlpha"/>
<feOffset dy="1"/>
<feGaussianBlur stdDeviation="2"/>
<feComposite in2="hardAlpha" operator="out"/>
<feColorMatrix type="matrix" values="0 0 0 0 0.784314 0 0 0 0 0.745098 0 0 0 0 0.568627 0 0 0 0.49 0"/>
<feBlend mode="normal" in2="BackgroundImageFix" result="effect1_dropShadow_1_8"/>
<feBlend mode="normal" in="SourceGraphic" in2="effect1_dropShadow_1_8" result="shape"/>
</filter>
<filter id="filter1_d_1_8" x="43.2949" y="39.0078" width="584.65" height="132.805" filterUnits="userSpaceOnUse" color-interpolation-filters="sRGB">
<feFlood flood-opacity="0" result="BackgroundImageFix"/>
<feColorMatrix in="SourceAlpha" type="matrix" values="0 0 0 0 0 0 0 0 0 0 0 0 0 0 0 0 0 0 127 0" result="hardAlpha"/>
<feOffset dy="1"/>
<feGaussianBlur stdDeviation="2"/>
<feComposite in2="hardAlpha" operator="out"/>
<feColorMatrix type="matrix" values="0 0 0 0 0.784314 0 0 0 0 0.745098 0 0 0 0 0.568627 0 0 0 0.49 0"/>
<feBlend mode="normal" in2="BackgroundImageFix" result="effect1_dropShadow_1_8"/>
<feBlend mode="normal" in="SourceGraphic" in2="effect1_dropShadow_1_8" result="shape"/>
</filter>
<filter id="filter2_d_1_8" x="43.1191" y="209.096" width="1135.11" height="132.629" filterUnits="userSpaceOnUse" color-interpolation-filters="sRGB">
<feFlood flood-opacity="0" result="BackgroundImageFix"/>
<feColorMatrix in="SourceAlpha" type="matrix" values="0 0 0 0 0 0 0 0 0 0 0 0 0 0 0 0 0 0 127 0" result="hardAlpha"/>
<feOffset dy="1"/>
<feGaussianBlur stdDeviation="2"/>
<feComposite in2="hardAlpha" operator="out"/>
<feColorMatrix type="matrix" values="0 0 0 0 0.784314 0 0 0 0 0.745098 0 0 0 0 0.568627 0 0 0 0.49 0"/>
<feBlend mode="normal" in2="BackgroundImageFix" result="effect1_dropShadow_1_8"/>
<feBlend mode="normal" in="SourceGraphic" in2="effect1_dropShadow_1_8" result="shape"/>
</filter>
</defs>
</svg>
